<?xml version="1.0" encoding="utf-8"?>
<!-- Generator: Adobe Illustrator 16.0.0, SVG Export Plug-In . SVG Version: 6.00 Build 0)  -->
<!DOCTYPE svg PUBLIC "-//W3C//DTD SVG 1.1//EN" "http://www.w3.org/Graphics/SVG/1.1/DTD/svg11.dtd">
<svg version="1.1" xmlns="http://www.w3.org/2000/svg" xmlns:xlink="http://www.w3.org/1999/xlink" x="0px" y="0px"
	 width="783.888px" height="471.949px" viewBox="0 0 783.888 471.949" enable-background="new 0 0 783.888 471.949"
	 xml:space="preserve">
<g id="base">
	<path fill="#FFFFFF" d="M29.832,0c0,0-33.5,68.75-29.5,120.75s32.5,60.375,49.5,71.875s44.5,23.438,48.5,54.938
		s5.5,57.469,6,82.969s-0.5,49.484-2.5,67.484s-10.5,29.492-41.5,34.492l-22,2.496c0,0-20,6.498-0.5,7.498s54.667,1.165,152-0.002
		c0,0,15-3.5-9-9s-51,0-59-35c0,0-1.5-54-2-68s3-66,6.5-84s6.5-29,59.5-61c0,0,43.5-21.75,38-73.25c0,0,1.5-46.25-29.5-112.25h-11.5
		c0,0,31,70,30,112.5c0,0,0,78.5-100.5,84c0,0-87-0.375-100-76.375c0,0-6-42.125,29-120.125H29.832z"/>
</g>
<g id="liquide">
	<path fill="#47091A" d="M19.832,90.5c0,0,30.5-16.5,98,0s87.5,6,87.5,6s14,89-93,88S19.832,90.5,19.832,90.5z"/>
</g>
<g id="reflet">
	<linearGradient id="SVGID_1_" gradientUnits="userSpaceOnUse" x1="202.4136" y1="225.7744" x2="126.4152" y2="81.7775">
		<stop  offset="0" style="stop-color:#FFFFFF"/>
		<stop  offset="1" style="stop-color:#000000;stop-opacity:0"/>
	</linearGradient>
	<circle fill="url(#SVGID_1_)" cx="158.612" cy="142.78" r="22.78"/>
</g>
<g id="Calque_4">
	<text transform="matrix(1.0046 0 0 1 224.312 290.2793)" fill="#FFFFFF" font-family="'SouciSans'" font-size="159.4256">Vins</text>
	<text transform="matrix(1.0046 0 0 1 224.311 432.2529)" fill="#FFFFFF" font-family="'SouciSans'" font-size="159.4256">Gourmets</text>
</g>
</svg>
